<mxfile host="app.diagrams.net" agent="Mozilla/5.0 (Windows NT 10.0; Win64; x64; rv:142.0) Gecko/20100101 Firefox/142.0" version="28.2.0">
  <diagram name="Page-1" id="rZ2FOjM_YUcgUHK1vIjp">
    <mxGraphModel dx="1224" dy="1109" grid="1" gridSize="10" guides="1" tooltips="1" connect="1" arrows="1" fold="1" page="1" pageScale="1" pageWidth="850" pageHeight="1100" math="0" shadow="0">
      <root>
        <mxCell id="0" />
        <mxCell id="1" parent="0" />
        <mxCell id="EC4Rl0dKBIWUiP_d3h_T-11" style="edgeStyle=orthogonalEdgeStyle;rounded=0;orthogonalLoop=1;jettySize=auto;html=1;exitX=0.5;exitY=1;exitDx=0;exitDy=0;entryX=0.5;entryY=0;entryDx=0;entryDy=0;" edge="1" parent="1" source="EC4Rl0dKBIWUiP_d3h_T-1" target="EC4Rl0dKBIWUiP_d3h_T-3">
          <mxGeometry relative="1" as="geometry" />
        </mxCell>
        <mxCell id="EC4Rl0dKBIWUiP_d3h_T-1" value="Start" style="ellipse;whiteSpace=wrap;html=1;" vertex="1" parent="1">
          <mxGeometry x="40" y="40" width="120" height="80" as="geometry" />
        </mxCell>
        <mxCell id="EC4Rl0dKBIWUiP_d3h_T-46" style="edgeStyle=orthogonalEdgeStyle;rounded=0;orthogonalLoop=1;jettySize=auto;html=1;exitX=1;exitY=0.5;exitDx=0;exitDy=0;entryX=0;entryY=0.5;entryDx=0;entryDy=0;" edge="1" parent="1" source="EC4Rl0dKBIWUiP_d3h_T-2" target="EC4Rl0dKBIWUiP_d3h_T-6">
          <mxGeometry relative="1" as="geometry" />
        </mxCell>
        <mxCell id="EC4Rl0dKBIWUiP_d3h_T-2" value="Item selected" style="rhombus;whiteSpace=wrap;html=1;" vertex="1" parent="1">
          <mxGeometry x="220" y="310" width="120" height="80" as="geometry" />
        </mxCell>
        <mxCell id="EC4Rl0dKBIWUiP_d3h_T-23" style="edgeStyle=orthogonalEdgeStyle;rounded=0;orthogonalLoop=1;jettySize=auto;html=1;exitX=0.5;exitY=1;exitDx=0;exitDy=0;entryX=0.5;entryY=0;entryDx=0;entryDy=0;" edge="1" parent="1" source="EC4Rl0dKBIWUiP_d3h_T-3" target="EC4Rl0dKBIWUiP_d3h_T-21">
          <mxGeometry relative="1" as="geometry" />
        </mxCell>
        <mxCell id="EC4Rl0dKBIWUiP_d3h_T-3" value="Show menu" style="rounded=0;whiteSpace=wrap;html=1;" vertex="1" parent="1">
          <mxGeometry x="40" y="190" width="120" height="60" as="geometry" />
        </mxCell>
        <mxCell id="EC4Rl0dKBIWUiP_d3h_T-4" value="End" style="ellipse;whiteSpace=wrap;html=1;" vertex="1" parent="1">
          <mxGeometry x="580" y="740" width="120" height="80" as="geometry" />
        </mxCell>
        <mxCell id="EC4Rl0dKBIWUiP_d3h_T-54" style="edgeStyle=orthogonalEdgeStyle;rounded=0;orthogonalLoop=1;jettySize=auto;html=1;exitX=1;exitY=0.5;exitDx=0;exitDy=0;entryX=0.5;entryY=1;entryDx=0;entryDy=0;" edge="1" parent="1" source="EC4Rl0dKBIWUiP_d3h_T-5" target="EC4Rl0dKBIWUiP_d3h_T-53">
          <mxGeometry relative="1" as="geometry" />
        </mxCell>
        <mxCell id="EC4Rl0dKBIWUiP_d3h_T-5" value="&lt;div&gt;Add item to list&lt;/div&gt;" style="rounded=0;whiteSpace=wrap;html=1;" vertex="1" parent="1">
          <mxGeometry x="580" y="340" width="120" height="60" as="geometry" />
        </mxCell>
        <mxCell id="EC4Rl0dKBIWUiP_d3h_T-50" style="edgeStyle=orthogonalEdgeStyle;rounded=0;orthogonalLoop=1;jettySize=auto;html=1;exitX=1;exitY=1;exitDx=0;exitDy=0;entryX=0;entryY=0.5;entryDx=0;entryDy=0;" edge="1" parent="1" source="EC4Rl0dKBIWUiP_d3h_T-6" target="EC4Rl0dKBIWUiP_d3h_T-5">
          <mxGeometry relative="1" as="geometry" />
        </mxCell>
        <mxCell id="EC4Rl0dKBIWUiP_d3h_T-51" style="edgeStyle=orthogonalEdgeStyle;rounded=0;orthogonalLoop=1;jettySize=auto;html=1;exitX=1;exitY=0;exitDx=0;exitDy=0;entryX=0;entryY=0.5;entryDx=0;entryDy=0;" edge="1" parent="1" source="EC4Rl0dKBIWUiP_d3h_T-6" target="EC4Rl0dKBIWUiP_d3h_T-7">
          <mxGeometry relative="1" as="geometry" />
        </mxCell>
        <mxCell id="EC4Rl0dKBIWUiP_d3h_T-6" value="Does list already contain item?" style="rhombus;whiteSpace=wrap;html=1;" vertex="1" parent="1">
          <mxGeometry x="400" y="310" width="120" height="80" as="geometry" />
        </mxCell>
        <mxCell id="EC4Rl0dKBIWUiP_d3h_T-57" style="edgeStyle=orthogonalEdgeStyle;rounded=0;orthogonalLoop=1;jettySize=auto;html=1;exitX=1;exitY=0.5;exitDx=0;exitDy=0;entryX=0.5;entryY=0;entryDx=0;entryDy=0;" edge="1" parent="1" source="EC4Rl0dKBIWUiP_d3h_T-7" target="EC4Rl0dKBIWUiP_d3h_T-53">
          <mxGeometry relative="1" as="geometry" />
        </mxCell>
        <mxCell id="EC4Rl0dKBIWUiP_d3h_T-7" value="Increase count by 1" style="rounded=0;whiteSpace=wrap;html=1;" vertex="1" parent="1">
          <mxGeometry x="580" y="250" width="120" height="60" as="geometry" />
        </mxCell>
        <mxCell id="EC4Rl0dKBIWUiP_d3h_T-45" style="edgeStyle=orthogonalEdgeStyle;rounded=0;orthogonalLoop=1;jettySize=auto;html=1;exitX=1;exitY=0.5;exitDx=0;exitDy=0;" edge="1" parent="1" source="EC4Rl0dKBIWUiP_d3h_T-21" target="EC4Rl0dKBIWUiP_d3h_T-2">
          <mxGeometry relative="1" as="geometry" />
        </mxCell>
        <mxCell id="EC4Rl0dKBIWUiP_d3h_T-74" style="edgeStyle=orthogonalEdgeStyle;rounded=0;orthogonalLoop=1;jettySize=auto;html=1;exitX=0.5;exitY=1;exitDx=0;exitDy=0;entryX=0.5;entryY=0;entryDx=0;entryDy=0;" edge="1" parent="1" source="EC4Rl0dKBIWUiP_d3h_T-21" target="EC4Rl0dKBIWUiP_d3h_T-73">
          <mxGeometry relative="1" as="geometry" />
        </mxCell>
        <mxCell id="EC4Rl0dKBIWUiP_d3h_T-21" value="&lt;div&gt;Has payment been selected&lt;/div&gt;" style="rhombus;whiteSpace=wrap;html=1;" vertex="1" parent="1">
          <mxGeometry x="40" y="310" width="120" height="80" as="geometry" />
        </mxCell>
        <mxCell id="EC4Rl0dKBIWUiP_d3h_T-30" style="edgeStyle=orthogonalEdgeStyle;rounded=0;orthogonalLoop=1;jettySize=auto;html=1;exitX=1;exitY=0.5;exitDx=0;exitDy=0;entryX=0;entryY=0.5;entryDx=0;entryDy=0;" edge="1" parent="1" source="EC4Rl0dKBIWUiP_d3h_T-27" target="EC4Rl0dKBIWUiP_d3h_T-29">
          <mxGeometry relative="1" as="geometry" />
        </mxCell>
        <mxCell id="EC4Rl0dKBIWUiP_d3h_T-36" style="edgeStyle=orthogonalEdgeStyle;rounded=0;orthogonalLoop=1;jettySize=auto;html=1;exitX=0.5;exitY=1;exitDx=0;exitDy=0;entryX=0.5;entryY=0;entryDx=0;entryDy=0;" edge="1" parent="1" source="EC4Rl0dKBIWUiP_d3h_T-27" target="EC4Rl0dKBIWUiP_d3h_T-32">
          <mxGeometry relative="1" as="geometry" />
        </mxCell>
        <mxCell id="EC4Rl0dKBIWUiP_d3h_T-27" value="Cash or card?" style="rounded=0;whiteSpace=wrap;html=1;" vertex="1" parent="1">
          <mxGeometry x="40" y="630" width="120" height="60" as="geometry" />
        </mxCell>
        <mxCell id="EC4Rl0dKBIWUiP_d3h_T-40" style="edgeStyle=orthogonalEdgeStyle;rounded=0;orthogonalLoop=1;jettySize=auto;html=1;exitX=1;exitY=0.5;exitDx=0;exitDy=0;entryX=0;entryY=0.5;entryDx=0;entryDy=0;" edge="1" parent="1" source="EC4Rl0dKBIWUiP_d3h_T-29" target="EC4Rl0dKBIWUiP_d3h_T-39">
          <mxGeometry relative="1" as="geometry" />
        </mxCell>
        <mxCell id="EC4Rl0dKBIWUiP_d3h_T-29" value="Send request to eftpos machine" style="rhombus;whiteSpace=wrap;html=1;" vertex="1" parent="1">
          <mxGeometry x="220" y="620" width="120" height="80" as="geometry" />
        </mxCell>
        <mxCell id="EC4Rl0dKBIWUiP_d3h_T-37" style="edgeStyle=orthogonalEdgeStyle;rounded=0;orthogonalLoop=1;jettySize=auto;html=1;exitX=1;exitY=0.5;exitDx=0;exitDy=0;entryX=0;entryY=0.5;entryDx=0;entryDy=0;" edge="1" parent="1" source="EC4Rl0dKBIWUiP_d3h_T-32" target="EC4Rl0dKBIWUiP_d3h_T-33">
          <mxGeometry relative="1" as="geometry" />
        </mxCell>
        <mxCell id="EC4Rl0dKBIWUiP_d3h_T-32" value="How much cash?" style="rhombus;whiteSpace=wrap;html=1;" vertex="1" parent="1">
          <mxGeometry x="40" y="740" width="120" height="80" as="geometry" />
        </mxCell>
        <mxCell id="EC4Rl0dKBIWUiP_d3h_T-38" style="edgeStyle=orthogonalEdgeStyle;rounded=0;orthogonalLoop=1;jettySize=auto;html=1;exitX=1;exitY=0.5;exitDx=0;exitDy=0;entryX=0;entryY=0.5;entryDx=0;entryDy=0;" edge="1" parent="1" source="EC4Rl0dKBIWUiP_d3h_T-33" target="EC4Rl0dKBIWUiP_d3h_T-34">
          <mxGeometry relative="1" as="geometry" />
        </mxCell>
        <mxCell id="EC4Rl0dKBIWUiP_d3h_T-33" value="Show change" style="rounded=0;whiteSpace=wrap;html=1;" vertex="1" parent="1">
          <mxGeometry x="220" y="750" width="120" height="60" as="geometry" />
        </mxCell>
        <mxCell id="EC4Rl0dKBIWUiP_d3h_T-41" style="edgeStyle=orthogonalEdgeStyle;rounded=0;orthogonalLoop=1;jettySize=auto;html=1;exitX=0.5;exitY=0;exitDx=0;exitDy=0;entryX=0.5;entryY=1;entryDx=0;entryDy=0;" edge="1" parent="1" source="EC4Rl0dKBIWUiP_d3h_T-34" target="EC4Rl0dKBIWUiP_d3h_T-39">
          <mxGeometry relative="1" as="geometry" />
        </mxCell>
        <mxCell id="EC4Rl0dKBIWUiP_d3h_T-34" value="Open cash drawer" style="rhombus;whiteSpace=wrap;html=1;" vertex="1" parent="1">
          <mxGeometry x="400" y="740" width="120" height="80" as="geometry" />
        </mxCell>
        <mxCell id="EC4Rl0dKBIWUiP_d3h_T-43" style="edgeStyle=orthogonalEdgeStyle;rounded=0;orthogonalLoop=1;jettySize=auto;html=1;exitX=1;exitY=0.5;exitDx=0;exitDy=0;entryX=0;entryY=0.5;entryDx=0;entryDy=0;" edge="1" parent="1" source="EC4Rl0dKBIWUiP_d3h_T-39" target="EC4Rl0dKBIWUiP_d3h_T-42">
          <mxGeometry relative="1" as="geometry" />
        </mxCell>
        <mxCell id="EC4Rl0dKBIWUiP_d3h_T-39" value="Payment accepted?" style="rhombus;whiteSpace=wrap;html=1;" vertex="1" parent="1">
          <mxGeometry x="400" y="620" width="120" height="80" as="geometry" />
        </mxCell>
        <mxCell id="EC4Rl0dKBIWUiP_d3h_T-81" style="edgeStyle=orthogonalEdgeStyle;rounded=0;orthogonalLoop=1;jettySize=auto;html=1;exitX=1;exitY=0.5;exitDx=0;exitDy=0;entryX=0;entryY=0.5;entryDx=0;entryDy=0;" edge="1" parent="1" source="EC4Rl0dKBIWUiP_d3h_T-42" target="EC4Rl0dKBIWUiP_d3h_T-79">
          <mxGeometry relative="1" as="geometry" />
        </mxCell>
        <mxCell id="EC4Rl0dKBIWUiP_d3h_T-42" value="&lt;div&gt;Print receipt&lt;/div&gt;" style="rounded=0;whiteSpace=wrap;html=1;" vertex="1" parent="1">
          <mxGeometry x="580" y="630" width="120" height="60" as="geometry" />
        </mxCell>
        <mxCell id="EC4Rl0dKBIWUiP_d3h_T-59" style="edgeStyle=orthogonalEdgeStyle;rounded=0;orthogonalLoop=1;jettySize=auto;html=1;exitX=1;exitY=0.5;exitDx=0;exitDy=0;entryX=1;entryY=0.5;entryDx=0;entryDy=0;" edge="1" parent="1" source="EC4Rl0dKBIWUiP_d3h_T-53" target="EC4Rl0dKBIWUiP_d3h_T-58">
          <mxGeometry relative="1" as="geometry" />
        </mxCell>
        <mxCell id="EC4Rl0dKBIWUiP_d3h_T-53" value="" style="ellipse;whiteSpace=wrap;html=1;aspect=fixed;" vertex="1" parent="1">
          <mxGeometry x="750" y="320" width="20" height="20" as="geometry" />
        </mxCell>
        <mxCell id="EC4Rl0dKBIWUiP_d3h_T-61" style="edgeStyle=orthogonalEdgeStyle;rounded=0;orthogonalLoop=1;jettySize=auto;html=1;exitX=0.5;exitY=0;exitDx=0;exitDy=0;entryX=0.5;entryY=1;entryDx=0;entryDy=0;" edge="1" parent="1" source="EC4Rl0dKBIWUiP_d3h_T-58" target="EC4Rl0dKBIWUiP_d3h_T-60">
          <mxGeometry relative="1" as="geometry" />
        </mxCell>
        <mxCell id="EC4Rl0dKBIWUiP_d3h_T-65" style="edgeStyle=orthogonalEdgeStyle;rounded=0;orthogonalLoop=1;jettySize=auto;html=1;exitX=0;exitY=0.5;exitDx=0;exitDy=0;entryX=0.5;entryY=1;entryDx=0;entryDy=0;" edge="1" parent="1" source="EC4Rl0dKBIWUiP_d3h_T-58" target="EC4Rl0dKBIWUiP_d3h_T-63">
          <mxGeometry relative="1" as="geometry" />
        </mxCell>
        <mxCell id="EC4Rl0dKBIWUiP_d3h_T-58" value="Is there a deal for items in the list?" style="rhombus;whiteSpace=wrap;html=1;" vertex="1" parent="1">
          <mxGeometry x="390" y="200" width="120" height="80" as="geometry" />
        </mxCell>
        <mxCell id="EC4Rl0dKBIWUiP_d3h_T-66" style="edgeStyle=orthogonalEdgeStyle;rounded=0;orthogonalLoop=1;jettySize=auto;html=1;exitX=0;exitY=0.5;exitDx=0;exitDy=0;entryX=0.5;entryY=0;entryDx=0;entryDy=0;" edge="1" parent="1" source="EC4Rl0dKBIWUiP_d3h_T-60" target="EC4Rl0dKBIWUiP_d3h_T-63">
          <mxGeometry relative="1" as="geometry" />
        </mxCell>
        <mxCell id="EC4Rl0dKBIWUiP_d3h_T-60" value="Replace items for meal deal &amp;amp; adjust price" style="rounded=0;whiteSpace=wrap;html=1;" vertex="1" parent="1">
          <mxGeometry x="390" y="110" width="120" height="60" as="geometry" />
        </mxCell>
        <mxCell id="EC4Rl0dKBIWUiP_d3h_T-67" style="edgeStyle=orthogonalEdgeStyle;rounded=0;orthogonalLoop=1;jettySize=auto;html=1;exitX=0;exitY=0.5;exitDx=0;exitDy=0;entryX=1;entryY=0.5;entryDx=0;entryDy=0;" edge="1" parent="1" source="EC4Rl0dKBIWUiP_d3h_T-63" target="EC4Rl0dKBIWUiP_d3h_T-3">
          <mxGeometry relative="1" as="geometry" />
        </mxCell>
        <mxCell id="EC4Rl0dKBIWUiP_d3h_T-63" value="" style="ellipse;whiteSpace=wrap;html=1;aspect=fixed;" vertex="1" parent="1">
          <mxGeometry x="290" y="210" width="20" height="20" as="geometry" />
        </mxCell>
        <mxCell id="EC4Rl0dKBIWUiP_d3h_T-72" value="" style="endArrow=classic;html=1;rounded=0;exitX=0.5;exitY=0;exitDx=0;exitDy=0;" edge="1" parent="1" source="EC4Rl0dKBIWUiP_d3h_T-39">
          <mxGeometry width="50" height="50" relative="1" as="geometry">
            <mxPoint x="460" y="500" as="sourcePoint" />
            <mxPoint x="110" y="420" as="targetPoint" />
            <Array as="points">
              <mxPoint x="460" y="420" />
            </Array>
          </mxGeometry>
        </mxCell>
        <mxCell id="EC4Rl0dKBIWUiP_d3h_T-75" style="edgeStyle=orthogonalEdgeStyle;rounded=0;orthogonalLoop=1;jettySize=auto;html=1;exitX=0.5;exitY=1;exitDx=0;exitDy=0;entryX=0.5;entryY=0;entryDx=0;entryDy=0;" edge="1" parent="1" source="EC4Rl0dKBIWUiP_d3h_T-73" target="EC4Rl0dKBIWUiP_d3h_T-27">
          <mxGeometry relative="1" as="geometry" />
        </mxCell>
        <mxCell id="EC4Rl0dKBIWUiP_d3h_T-77" style="edgeStyle=orthogonalEdgeStyle;rounded=0;orthogonalLoop=1;jettySize=auto;html=1;exitX=1;exitY=0.5;exitDx=0;exitDy=0;entryX=0;entryY=0.5;entryDx=0;entryDy=0;" edge="1" parent="1" source="EC4Rl0dKBIWUiP_d3h_T-73" target="EC4Rl0dKBIWUiP_d3h_T-76">
          <mxGeometry relative="1" as="geometry" />
        </mxCell>
        <mxCell id="EC4Rl0dKBIWUiP_d3h_T-73" value="Are items still required?" style="rhombus;whiteSpace=wrap;html=1;" vertex="1" parent="1">
          <mxGeometry x="40" y="460" width="120" height="80" as="geometry" />
        </mxCell>
        <mxCell id="EC4Rl0dKBIWUiP_d3h_T-80" style="edgeStyle=orthogonalEdgeStyle;rounded=0;orthogonalLoop=1;jettySize=auto;html=1;exitX=0.5;exitY=1;exitDx=0;exitDy=0;entryX=0.5;entryY=0;entryDx=0;entryDy=0;" edge="1" parent="1" source="EC4Rl0dKBIWUiP_d3h_T-76" target="EC4Rl0dKBIWUiP_d3h_T-79">
          <mxGeometry relative="1" as="geometry" />
        </mxCell>
        <mxCell id="EC4Rl0dKBIWUiP_d3h_T-76" value="Reset list of items selected" style="rounded=0;whiteSpace=wrap;html=1;" vertex="1" parent="1">
          <mxGeometry x="700" y="470" width="120" height="60" as="geometry" />
        </mxCell>
        <mxCell id="EC4Rl0dKBIWUiP_d3h_T-82" style="edgeStyle=orthogonalEdgeStyle;rounded=0;orthogonalLoop=1;jettySize=auto;html=1;exitX=0.5;exitY=1;exitDx=0;exitDy=0;entryX=1;entryY=0.5;entryDx=0;entryDy=0;" edge="1" parent="1" source="EC4Rl0dKBIWUiP_d3h_T-79" target="EC4Rl0dKBIWUiP_d3h_T-4">
          <mxGeometry relative="1" as="geometry" />
        </mxCell>
        <mxCell id="EC4Rl0dKBIWUiP_d3h_T-79" value="" style="ellipse;whiteSpace=wrap;html=1;aspect=fixed;" vertex="1" parent="1">
          <mxGeometry x="750" y="650" width="20" height="20" as="geometry" />
        </mxCell>
      </root>
    </mxGraphModel>
  </diagram>
</mxfile>
